<svg width="127" height="38" viewBox="0 0 127 38" fill="none" xmlns="http://www.w3.org/2000/svg">
<path d="M119.168 7.38481V9.4074H118.545V4.89185H120.191C121.003 4.89185 121.567 5.29166 121.567 6.06777C121.567 6.71453 121.191 7.00851 120.838 7.1261C121.308 7.27898 121.496 7.65527 121.496 8.25499V8.34907C121.496 8.76064 121.508 9.16046 121.555 9.41916H120.944C120.885 9.23101 120.862 8.84296 120.862 8.34907V8.25499C120.862 7.64351 120.638 7.39657 119.921 7.39657H119.168V7.38481ZM119.168 6.87916H119.98C120.544 6.87916 120.932 6.72629 120.932 6.11481C120.932 5.64444 120.615 5.40925 120.109 5.40925H119.168V6.87916Z" fill="black"/>
<path d="M120.062 11.8416C117.475 11.8416 115.382 9.73666 115.382 7.16139C115.382 4.57435 117.487 2.4812 120.062 2.4812C122.637 2.4812 124.742 4.58611 124.742 7.16139C124.742 9.73666 122.637 11.8416 120.062 11.8416ZM120.062 3.1162C117.84 3.1162 116.029 4.92713 116.029 7.14963C116.029 9.37213 117.84 11.1831 120.062 11.1831C122.285 11.1831 124.095 9.37213 124.095 7.14963C124.095 4.92713 122.285 3.1162 120.062 3.1162Z" fill="black"/>
<path d="M57.2671 25.5881L55.6209 26.9757H2.68066L4.3152 25.5881H57.2671Z" fill="#E13A8D"/>
<path d="M112.654 25.5881L110.996 26.9757H58.0557L59.702 25.5881H112.654Z" fill="black"/>
<path d="M27.9756 35.3719V30.0215H30.739C31.0212 30.0215 31.2799 30.0685 31.5269 30.1744C31.7738 30.2802 31.9855 30.4095 32.1619 30.5859C32.3383 30.7623 32.4794 30.9505 32.5735 31.1621C32.6675 31.3738 32.7146 31.5972 32.7146 31.8089C32.7146 32.0323 32.6675 32.2557 32.5735 32.4557C32.4794 32.6673 32.1972 33.0907 31.668 33.3494L33.0909 35.3719H31.8444L30.5744 33.5963H29.0457V35.3719H27.9756ZM29.0692 32.6791H30.7037C30.8566 32.6791 31.0448 32.6438 31.1623 32.5615C31.2799 32.4792 31.374 32.3733 31.4446 32.244C31.5151 32.1146 31.5504 31.9618 31.5504 31.8089C31.5504 31.6443 31.5034 31.4914 31.4328 31.362C31.3505 31.2327 31.2447 31.1269 31.1271 31.0563C31.0095 30.9857 30.8213 30.9387 30.6685 30.9387H29.0692V32.6791Z" fill="black"/>
<path d="M15.0635 30.0215V31.903L16.1336 31.0093V30.0215H15.0635Z" fill="#E13A8D"/>
<path d="M16.1336 35.3719V32.0088L15.0635 32.8907V35.3719H16.1336Z" fill="black"/>
<path d="M39.8398 30.0215V31.903L40.9099 31.0093V30.0215H39.8398Z" fill="black"/>
<path d="M40.9099 35.3719V32.0088L39.8398 32.8907V35.3719H40.9099Z" fill="black"/>
<path d="M48.8944 30.9269H52.1047V30.0215H47.8008V35.3719H52.1752V34.5253H48.8944V33.1965H51.0934V32.3028H48.8944V30.9269Z" fill="black"/>
<path d="M23.742 30.9269H26.964V30.0215H22.6602V35.3719H27.0346V34.5253H23.742V33.1965H25.9527V32.3028H23.742V30.9269Z" fill="black"/>
<path d="M33.4082 30.0215H34.6312L36.1951 34.2431L37.7709 30.0215H38.9821L36.8772 35.3719H35.5366L33.4082 30.0215Z" fill="black"/>
<path d="M20.7668 31.0915L21.4841 30.4918C21.4841 30.4918 20.8727 30.1272 20.6492 30.0567C18.5679 29.4334 17.6977 30.5741 17.5566 30.9857C17.3684 31.5266 17.533 32.1851 18.0504 32.5379C18.6502 32.9494 19.2381 33.0435 19.8731 33.2434C20.0025 33.2905 20.1436 33.3375 20.2612 33.4198C20.3788 33.5021 20.4729 33.6197 20.4964 33.7608C20.5316 33.9137 20.4846 34.0783 20.3905 34.1959C20.2965 34.3253 19.5204 35.1131 17.9681 34.3135L17.2979 34.878C17.2979 34.878 18.121 35.56 19.2969 35.5482C20.2259 35.5365 21.4371 35.1719 21.6017 34.1136C21.6723 33.6785 21.5194 33.1964 21.2019 32.8907C20.8844 32.5849 20.4493 32.4085 20.026 32.2909C19.6262 32.1733 18.3327 31.9264 18.6384 31.2561C18.9441 30.7152 19.6967 30.7387 20.2141 30.8681C20.5434 30.9504 20.7668 31.0915 20.7668 31.0915Z" fill="black"/>
<path d="M46.6962 30.3741C46.6962 30.3741 46.214 30.1036 45.8965 30.0213C45.4967 29.9155 45.0734 29.8802 44.6618 29.9037C44.0739 29.9272 43.4859 30.1154 43.0155 30.4917C42.4276 30.962 42.0865 31.6911 42.016 32.4319C41.9572 32.9846 42.0513 33.5608 42.2982 34.0547C42.6392 34.7367 43.2977 35.2424 44.0268 35.4541C44.4972 35.5952 44.9911 35.6069 45.4732 35.5364C46.0847 35.4423 46.7667 35.019 46.7667 35.019L46.0259 34.3957C46.0259 34.3957 45.6261 34.6544 44.85 34.6309C44.4737 34.6074 44.0974 34.4898 43.8034 34.2546C43.3213 33.8783 43.0861 33.2433 43.1096 32.6318C43.1214 32.138 43.2977 31.6441 43.6623 31.3148C43.9563 31.0326 44.3678 30.868 44.7794 30.8327C45.191 30.7974 45.579 30.868 45.9671 30.9973C46.2023 30.7856 46.6962 30.3741 46.6962 30.3741Z" fill="black"/>
<path d="M4.87965 32.7966H3.38622V34.8662H5.07955L4.98548 35.3954H2.68066V30.0449H4.96196V30.5741H3.38622V32.2792H4.87965V32.7966Z" fill="black"/>
<path d="M9.32479 35.3837L8.48988 33.1729H8.47813L7.6197 35.3837H6.89062L8.07831 32.6085L6.96118 30.0332H7.73729L8.5134 32.0088H8.52516L9.30127 30.0332H10.0421L8.91322 32.5379L10.1127 35.3837H9.32479Z" fill="black"/>
<path d="M12.1943 35.3837V34.2783H12.8999V35.3837H12.1943Z" fill="#E13A8D"/>
<path d="M93.6625 8.47847V5.30347H90.1465V11.4418L93.6625 8.47847Z" fill="#E13A8D"/>
<path d="M93.6507 11.7122L90.1465 14.6285V22.5542H93.6625V11.7122H93.6507Z" fill="black"/>
<path d="M41.6875 19.3793V22.5543H45.2035V16.416L41.6875 19.3793Z" fill="#E13A8D"/>
<path d="M37.0068 5.30347H49.895V8.208H45.203V13.2292L41.6988 16.1455H41.687V8.208H37.0068V5.30347Z" fill="black"/>
<path d="M69.6621 5.30347H73.6015L78.6344 18.9324L83.7262 5.30347H87.6067L80.8452 22.5543H76.5178L69.6621 5.30347Z" fill="black"/>
<path d="M13.0998 8.89012L15.3341 7.0204C15.3341 7.0204 13.4173 5.89151 12.7353 5.65632C6.2324 3.73956 3.53953 7.29086 3.08092 8.58438C2.4812 10.2895 3.02212 12.3356 4.60962 13.4292C6.49111 14.711 8.32555 15.0167 10.3011 15.6517C10.7244 15.781 11.136 15.9457 11.5005 16.1926C11.8651 16.4396 12.1591 16.8159 12.2531 17.2392C12.359 17.7096 12.2061 18.227 11.9121 18.615C11.6181 19.0031 9.20749 21.4608 4.35092 18.9796L2.26953 20.7199C2.26953 20.7199 4.83305 22.8366 8.49018 22.8013C11.3712 22.7778 15.1694 21.6254 15.6986 18.3093C15.922 16.9335 15.4399 15.4635 14.4521 14.4758C13.4761 13.4997 12.1238 12.9823 10.795 12.606C9.52499 12.2533 5.51509 11.4772 6.45583 9.38401C7.40833 7.67892 9.76018 7.78475 11.3712 8.18456C12.3943 8.45503 13.0998 8.89012 13.0998 8.89012Z" fill="black"/>
<path d="M22.2841 21.6606C20.873 20.908 19.7676 19.8614 18.968 18.5326C18.1684 17.2038 17.7686 15.7104 17.7686 14.0524C17.7686 12.3943 18.1684 10.9009 18.968 9.57208C19.7676 8.24328 20.873 7.19671 22.2841 6.44411C23.6952 5.69152 25.271 5.30347 27.0349 5.30347C28.787 5.30347 30.3745 5.67976 31.7738 6.44411C33.1732 7.19671 34.2786 8.24328 35.0899 9.57208C35.9013 10.9009 36.3011 12.3943 36.3011 14.0524C36.3011 15.7104 35.9013 17.2038 35.0899 18.5326C34.2786 19.8614 33.1849 20.908 31.7738 21.6606C30.3745 22.4132 28.7987 22.8012 27.0349 22.8012C25.271 22.8012 23.6952 22.4249 22.2841 21.6606ZM29.7395 18.7796C30.5509 18.321 31.1741 17.6742 31.6327 16.8628C32.0913 16.0397 32.3265 15.1107 32.3265 14.0641C32.3265 13.0175 32.0913 12.0768 31.6327 11.2654C31.1741 10.4423 30.5391 9.80726 29.7395 9.34865C28.9281 8.89004 28.0344 8.65486 27.0349 8.65486C26.0353 8.65486 25.1299 8.89004 24.3302 9.34865C23.5188 9.80726 22.8956 10.454 22.437 11.2654C21.9784 12.0886 21.7432 13.0175 21.7432 14.0641C21.7432 15.1107 21.9784 16.0514 22.437 16.8628C22.8956 17.686 23.5306 18.321 24.3302 18.7796C25.1416 19.2382 26.0353 19.4734 27.0349 19.4734C28.0344 19.4616 28.9281 19.2382 29.7395 18.7796Z" fill="black"/>
<path d="M55.1152 21.6606C53.7041 20.908 52.5987 19.8614 51.7991 18.5326C50.9994 17.2038 50.5996 15.7104 50.5996 14.0524C50.5996 12.3943 50.9994 10.9009 51.7991 9.57208C52.5987 8.24328 53.7041 7.19671 55.1152 6.44411C56.5263 5.69152 58.102 5.30347 59.8659 5.30347C61.618 5.30347 63.2055 5.67976 64.6049 6.44411C66.0042 7.19671 67.1096 8.24328 67.921 9.57208C68.7324 10.9009 69.1322 12.3943 69.1322 14.0524C69.1322 15.7104 68.7324 17.2038 67.921 18.5326C67.1096 19.8614 66.016 20.908 64.6049 21.6606C63.2055 22.4132 61.6298 22.8012 59.8659 22.8012C58.1138 22.8012 56.5263 22.4249 55.1152 21.6606ZM62.5705 18.7796C63.3819 18.321 64.0052 17.6742 64.4638 16.8628C64.9224 16.0397 65.1576 15.1107 65.1576 14.0641C65.1576 13.0175 64.9224 12.0768 64.4638 11.2654C64.0052 10.4423 63.3702 9.80726 62.5705 9.34865C61.7591 8.89004 60.8654 8.65486 59.8659 8.65486C58.8664 8.65486 57.9609 8.89004 57.1613 9.34865C56.3499 9.80726 55.7266 10.454 55.268 11.2654C54.8094 12.0886 54.5742 13.0175 54.5742 14.0641C54.5742 15.1107 54.8094 16.0514 55.268 16.8628C55.7266 17.686 56.3616 18.321 57.1613 18.7796C57.9727 19.2382 58.8664 19.4734 59.8659 19.4734C60.8654 19.4616 61.7709 19.2382 62.5705 18.7796Z" fill="black"/>
<path d="M103.646 15.781L101.329 18.1916V22.5543H97.3662V5.30347H101.329V13.3586L108.961 5.30347H113.394L106.256 12.994L113.817 22.5543H109.161L103.646 15.781Z" fill="black"/>
</svg>
